<?xml version="1.0" encoding="iso-8859-1"?>
<!-- Generator: Adobe Illustrator 19.0.0, SVG Export Plug-In . SVG Version: 6.00 Build 0)  -->
<svg version="1.1" id="Capa_1" xmlns="http://www.w3.org/2000/svg" xmlns:xlink="http://www.w3.org/1999/xlink" x="0px" y="0px"
	 viewBox="0 0 512 512" style="enable-background:new 0 0 512 512;" xml:space="preserve">
<path d="M131.5,501.92c-2.63,0-5.21-1.07-7.07-2.93s-2.93-4.44-2.93-7.07c0-2.64,1.069-5.21,2.93-7.07
	c1.86-1.87,4.44-2.93,7.07-2.93s5.21,1.06,7.069,2.93c1.86,1.86,2.931,4.43,2.931,7.07c0,2.63-1.07,5.2-2.931,7.07
	C136.71,500.85,134.13,501.92,131.5,501.92z"/>
<path d="M42.249,383.984c-2.688,0-5.368-1.077-7.339-3.205c-3.753-4.052-3.51-10.379,0.542-14.132l0.086-0.08
	c4.051-3.75,10.379-3.511,14.132,0.542c3.753,4.052,3.51,10.379-0.542,14.132l-0.086,0.08
	C47.118,383.103,44.681,383.984,42.249,383.984z"/>
<g>
	<path style="fill:#FCC69D;" d="M429.5,174h-81.642c-25.489,0-50.229-8.613-70.208-24.441l-41.792-33.109
		c-16.476-13.053-12.781-39.021,6.682-46.96l0,0c8.42-3.434,17.994-2.479,25.569,2.552L321.5,107.5l-135.118,9.083l-101.28,50.753
		c-14.924,7.478-33.085,2.461-42.053-11.619l0,0c-10.126-15.898-4.68-37.045,11.864-46.075L191.066,35.33
		c18.329-10.004,38.876-15.246,59.758-15.246H429.5V174z"/>
	<path style="fill:#FCC69D;" d="M82.5,338h81.642c25.489,0,50.229,8.613,70.208,24.441l41.792,33.109
		c16.476,13.053,12.781,39.021-6.682,46.96l0,0c-8.42,3.434-17.994,2.479-25.568-2.552L190.5,404.5l135.118-9.083l101.28-50.753
		c14.924-7.478,33.085-2.461,42.053,11.619l0,0c10.126,15.898,4.68,37.045-11.864,46.075L320.934,476.67
		c-18.329,10.004-38.876,15.246-59.758,15.246H82.5"/>
</g>
<g>
	<polyline style="fill:#72D8FF;" points="10,328 82.5,328 82.5,502 10,502 	"/>
	<polyline style="fill:#72D8FF;" points="502,184 429.5,184 429.5,10 502,10 	"/>
</g>
<path style="fill:#FF5D5D;" d="M283.69,207.961c-10.906,0-20.742,4.699-27.69,12.23c-6.948-7.531-16.783-12.23-27.69-12.23
	c-21.051,0-38.117,17.504-38.117,39.096c0,30.245,65.807,71.903,65.807,71.903s65.807-41.658,65.807-71.903
	C321.807,225.465,304.741,207.961,283.69,207.961z"/>
<path d="M422.418,335.723l-101.28,50.753c-4.938,2.475-6.935,8.483-4.46,13.42s8.479,6.934,13.421,4.46l101.28-50.753
	c10.374-5.201,22.901-1.739,29.138,8.05c3.393,5.328,4.395,11.63,2.819,17.747c-1.575,6.117-5.496,11.152-11.04,14.178
	l-136.153,74.313c-16.81,9.175-35.816,14.024-54.967,14.024h-88.713c-5.522,0-10,4.477-10,10s4.478,10,10,10h88.713
	c22.488,0,44.809-5.695,64.549-16.468l136.153-74.313c10.307-5.626,17.897-15.375,20.826-26.746
	c2.928-11.372,0.989-23.574-5.318-33.479C465.623,332.443,441.993,325.915,422.418,335.723z"/>
<path d="M164.142,348c23.136,0,45.864,7.912,63.998,22.279l41.792,33.109c4.921,3.898,7.33,9.936,6.446,16.151
	c-0.885,6.215-4.883,11.34-10.695,13.711c-5.358,2.186-11.438,1.58-16.26-1.623l-53.391-35.458
	c-4.599-3.056-10.808-1.802-13.862,2.798c-3.056,4.601-1.803,10.807,2.798,13.862l53.391,35.458
	c6.238,4.143,13.454,6.26,20.724,6.26c4.784,0,9.592-0.918,14.155-2.779c12.468-5.086,21.044-16.081,22.941-29.413
	c1.896-13.332-3.272-26.283-13.827-34.645l-41.792-33.109C218.906,337.447,191.767,328,164.142,328H92.5c0-5.523-4.478-10-10-10H10
	c-5.522,0-10,4.477-10,10s4.478,10,10,10h62.5v154H10c-5.522,0-10,4.477-10,10s4.478,10,10,10h72.5c5.522,0,10-4.477,10-10V348
	H164.142z"/>
<path d="M502,174h-62.5V20H502c5.522,0,10-4.477,10-10s-4.478-10-10-10h-72.5c-5.522,0-10,4.477-10,10v154h-71.642
	c-23.136,0-45.864-7.912-63.998-22.279l-41.792-33.109c-4.921-3.898-7.33-9.936-6.446-16.151c0.885-6.215,4.883-11.34,10.695-13.711
	c5.358-2.186,11.438-1.579,16.26,1.623l53.391,35.458c4.599,3.056,10.809,1.802,13.862-2.798c3.056-4.601,1.803-10.807-2.798-13.862
	l-53.391-35.458c-10.344-6.869-23.381-8.171-34.879-3.481c-12.468,5.086-21.044,16.081-22.941,29.413
	c-1.896,13.332,3.272,26.283,13.827,34.645l41.792,33.109C293.094,174.553,320.233,184,347.858,184H419.5c0,5.523,4.478,10,10,10
	H502c5.522,0,10-4.477,10-10S507.522,174,502,174z"/>
<path d="M384,30.08c2.63,0,5.21-1.06,7.069-2.92c1.86-1.87,2.931-4.45,2.931-7.08s-1.07-5.21-2.931-7.07
	c-1.859-1.86-4.439-2.93-7.069-2.93s-5.21,1.07-7.07,2.93S374,17.45,374,20.08c0,2.64,1.069,5.21,2.93,7.08
	C378.79,29.02,381.37,30.08,384,30.08z"/>
<path d="M70.472,180.82c6.441,0,12.976-1.469,19.11-4.543l101.28-50.753c4.938-2.475,6.935-8.483,4.46-13.42
	c-2.475-4.938-8.482-6.935-13.421-4.46l-101.28,50.753c-10.376,5.199-22.902,1.739-29.138-8.05
	c-3.394-5.328-4.395-11.63-2.819-17.747c1.575-6.117,5.496-11.152,11.04-14.178l136.153-74.313
	c16.81-9.175,35.816-14.024,54.967-14.024H341c5.522,0,10-4.477,10-10s-4.478-10-10-10h-90.176c-22.488,0-44.81,5.695-64.549,16.468
	L50.122,100.865c-10.307,5.626-17.897,15.375-20.826,26.746c-2.928,11.372-0.989,23.574,5.318,33.479
	C42.69,173.769,56.361,180.82,70.472,180.82z"/>
<path d="M467.345,126.275l-0.087,0.08c-4.072,3.73-4.351,10.055-0.621,14.128c1.973,2.154,4.671,3.247,7.378,3.247
	c2.412,0,4.831-0.868,6.751-2.625l0.087-0.08c4.072-3.73,4.351-10.055,0.621-14.128
	C477.743,122.823,471.419,122.545,467.345,126.275z"/>
<path d="M216.563,301.922c16.818,14.511,33.391,25.046,34.088,25.487c1.633,1.034,3.491,1.551,5.349,1.551s3.716-0.517,5.349-1.551
	c0.697-0.441,17.27-10.977,34.088-25.487c24.474-21.117,36.37-39.063,36.37-54.865c0-27.072-21.585-49.097-48.117-49.097
	c-9.943,0-19.639,3.191-27.689,8.957c-8.051-5.766-17.746-8.957-27.689-8.957c-26.532,0-48.117,22.025-48.117,49.097
	C180.193,262.858,192.09,280.805,216.563,301.922z M228.311,217.96c7.755,0,14.979,3.2,20.34,9.012
	c1.894,2.052,4.558,3.219,7.35,3.219c2.792,0,5.456-1.167,7.35-3.219c5.361-5.812,12.585-9.012,20.34-9.012
	c15.504,0,28.117,13.053,28.117,29.097c0,15.864-31.035,43.269-55.81,59.957c-24.775-16.671-55.804-44.062-55.804-59.957
	C200.193,231.013,212.807,217.96,228.311,217.96z"/>
<g>
</g>
<g>
</g>
<g>
</g>
<g>
</g>
<g>
</g>
<g>
</g>
<g>
</g>
<g>
</g>
<g>
</g>
<g>
</g>
<g>
</g>
<g>
</g>
<g>
</g>
<g>
</g>
<g>
</g>
</svg>
