<svg height="512pt" viewBox="0 0 512 512" width="512pt" xmlns="http://www.w3.org/2000/svg" xmlns:xlink="http://www.w3.org/1999/xlink"><linearGradient id="a" gradientUnits="userSpaceOnUse" x1="136" x2="136" y1="8" y2="504"><stop offset="0" stop-color="#eeccfe"/><stop offset="1" stop-color="#cf71fb"/></linearGradient><linearGradient id="b" gradientUnits="userSpaceOnUse" x1="112" x2="112" y1="92.5056" y2="248"><stop offset=".0051" stop-color="#fdbda7"/><stop offset="1" stop-color="#fa5419"/></linearGradient><linearGradient id="c" gradientUnits="userSpaceOnUse" x1="392" x2="392" y1="56" y2="232"><stop offset="0" stop-color="#fedaa3"/><stop offset="1" stop-color="#fb9700"/></linearGradient><linearGradient id="d" gradientUnits="userSpaceOnUse" x1="328" x2="328" y1="328" y2="504"><stop offset=".0128" stop-color="#feecba"/><stop offset="1" stop-color="#fdc00a"/></linearGradient><linearGradient id="e" gradientUnits="userSpaceOnUse" x1="328" x2="328" y1="360" y2="472"><stop offset="0" stop-color="#feecba"/><stop offset="1" stop-color="#fed96c"/></linearGradient><path d="m8 8h256v496h-256zm0 0" fill="#9bc53d"/><path d="m8 8h256v496h-256zm0 0" fill="url(#a)"/><path d="m40 40h192v368h-192zm0 0" fill="#f1d5fe"/><path d="m152 132.96875-40-40.464844-40 40.464844v115.03125h80zm0 0" fill="url(#b)"/><path d="m480 144c0 48.601562-39.398438 88-88 88s-88-39.398438-88-88 39.398438-88 88-88 88 39.398438 88 88zm0 0" fill="url(#c)"/><path d="m448 144c0 30.929688-25.070312 56-56 56s-56-25.070312-56-56 25.070312-56 56-56 56 25.070312 56 56zm0 0" fill="#fdc166"/><path d="m392 208c-35.289062 0-64-28.710938-64-64s28.710938-64 64-64 64 28.710938 64 64-28.710938 64-64 64zm0-112c-26.472656 0-48 21.527344-48 48s21.527344 48 48 48 48-21.527344 48-48-21.527344-48-48-48zm0 0"/><path d="m464 232h-144c-4.414062 0-8 3.585938-8 8v32c0 4.414062 3.585938 8 8 8h144c4.414062 0 8-3.585938 8-8v-32c0-4.414062-3.585938-8-8-8zm0 0" fill="#fb9700"/><path d="m464 280h-144c-4.414062 0-8 3.585938-8 8v32c0 4.414062 3.585938 8 8 8h144c4.414062 0 8-3.585938 8-8v-32c0-4.414062-3.585938-8-8-8zm0 0" fill="#bc7100"/><path d="m128 472h-32c-8.839844 0-16-7.160156-16-16s7.160156-16 16-16h32zm0 0" fill="#f1d5fe"/><path d="m128 480h-32c-13.230469 0-24-10.769531-24-24s10.769531-24 24-24h32v16h-32c-4.414062 0-8 3.585938-8 8s3.585938 8 8 8h32zm0 0"/><path d="m128 512h-112c-8.824219 0-16-7.175781-16-16v-480c0-8.824219 7.175781-16 16-16h240c8.824219 0 16 7.175781 16 16v288h-16v-288h-240v480h112zm0 0"/><path d="m232 32h-192c-4.425781 0-8 3.574219-8 8v368c0 4.425781 3.574219 8 8 8h88v-16h-80v-352h56v41.222656l-37.6875 38.121094c-1.480469 1.496094-2.3125 3.511719-2.3125 5.625v115.03125c0 4.425781 3.574219 8 8 8h80c4.425781 0 8-3.574219 8-8v-115.03125c0-2.113281-.832031-4.128906-2.3125-5.625l-37.6875-38.121094v-41.222656h104v256h16v-264c0-4.425781-3.574219-8-8-8zm-88 104.257812v103.742188h-64v-103.742188l24-24.273437v24.015625h16v-24.015625zm0 0"/><path d="m152 328h352v176h-352zm0 0" fill="url(#d)"/><path d="m456 360h-256c0 8.839844-7.160156 16-16 16v80c8.839844 0 16 7.160156 16 16h256c0-8.839844 7.160156-16 16-16v-80c-8.839844 0-16-7.160156-16-16zm0 0" fill="url(#e)"/><path d="m376 416c0 26.507812-21.492188 48-48 48s-48-21.492188-48-48 21.492188-48 48-48 48 21.492188 48 48zm0 0" fill="#fff2ce"/><path d="m456 480h-88v-16h81.367188c2.417968-6.816406 7.824218-12.214844 14.632812-14.632812v-66.734376c-6.816406-2.417968-12.214844-7.824218-14.632812-14.632812h-81.367188v-16h88c4.425781 0 8 3.574219 8 8 0 4.414062 3.585938 8 8 8 4.425781 0 8 3.574219 8 8v80c0 4.425781-3.574219 8-8 8-4.414062 0-8 3.585938-8 8 0 4.425781-3.574219 8-8 8zm0 0"/><path d="m288 480h-88c-4.425781 0-8-3.574219-8-8 0-4.414062-3.585938-8-8-8-4.425781 0-8-3.574219-8-8v-80c0-4.425781 3.574219-8 8-8 4.414062 0 8-3.585938 8-8 0-4.425781 3.574219-8 8-8h88v16h-81.367188c-2.417968 6.816406-7.824218 12.214844-14.632812 14.632812v66.734376c6.816406 2.417968 12.214844 7.824218 14.632812 14.632812h81.367188zm0 0"/><path d="m328 472c-30.871094 0-56-25.128906-56-56s25.128906-56 56-56 56 25.128906 56 56-25.128906 56-56 56zm0-96c-22.054688 0-40 17.945312-40 40s17.945312 40 40 40 40-17.945312 40-40-17.945312-40-40-40zm0 0"/><path d="m504 320h-24v-32c0-2.929688-.847656-5.640625-2.222656-8 1.375-2.359375 2.222656-5.070312 2.222656-8v-32c0-8.824219-7.175781-16-16-16h-19.046875c25.910156-17.207031 43.046875-46.625 43.046875-80 0-52.9375-43.0625-96-96-96s-96 43.0625-96 96c0 33.375 17.136719 62.792969 43.046875 80h-19.046875c-8.824219 0-16 7.175781-16 16v32c0 2.929688.847656 5.640625 2.222656 8-1.375 2.359375-2.222656 5.070312-2.222656 8v32h-152c-4.425781 0-8 3.574219-8 8v176c0 4.425781 3.574219 8 8 8h352c4.425781 0 8-3.574219 8-8v-176c0-4.425781-3.574219-8-8-8zm-192-176c0-44.113281 35.886719-80 80-80s80 35.886719 80 80-35.886719 80-80 80-80-35.886719-80-80zm8 96h16v16h16v-16h16v16h16v-16h16v16h16v-16h16v16h16v-16h16v32h-144zm0 48h16v16h16v-16h16v16h16v-16h16v16h16v-16h16v16h16v-16h16v32h-144zm176 208h-336v-160h336zm0 0"/></svg>